# xmcd
#
# Track frame offsets:
#	150
#	4084
#	18669
#	33933
#	49652
#	65769
#	80436
#	95685
#	112864
#	127048
#	143329
#	159821
#	174731
#
# Disc length: 2541 seconds
#
# Revision: 1
# Processed by: cddbd v1.4PL0 Copyright (c) Steve Scherf et al.
# Submitted via: EasyCDDAExtractor 5.0.6
#
DISCID=9f09eb0d
DTITLE=Å¬·¹¿À - CLEO 4th Project ' ÔÛü¥ '
DYEAR=2003
DGENRE=
TTITLE0=intro
TTITLE1=S.P.Y
TTITLE2=Replay
TTITLE3=¼ø¾Öº¸ Chicken version
TTITLE4=¿©ÀÚ
TTITLE5=µ¿È­
TTITLE6=ÈçµéÈçµé
TTITLE7=wanna B
TTITLE8=»ç¸£¸£¡¤¡¤¡¤
TTITLE9=Love time
TTITLE10=¿¬±Ø
TTITLE11=professional
TTITLE12=¼ø¾Öº¸
EXTD=
EXTT0=
EXTT1=
EXTT2=
EXTT3=
EXTT4=
EXTT5=
EXTT6=
EXTT7=
EXTT8=
EXTT9=
EXTT10=
EXTT11=
EXTT12=
PLAYORDER=
